# xmcd CD database file
#
# Track frame offsets:
#	150
#	13857
#	29252
#	38795
#	54057
#	70870
#
# Disc length: 1248 seconds
#
# Revision: 0
# Processed by: cddbd v1.5PL3 Copyright (c) Steve Scherf et al.
# Submitted via: CDex 1.51
#
DISCID=4204de06
DTITLE=ハセベノヴコ - パンダマン
DYEAR=2000
DGENRE=Pop
TTITLE0=うさぎ
TTITLE1=The 音渡
TTITLE2=Ｂｕｎ太と私
TTITLE3=ニワトリ王子
TTITLE4=彼のペリスコープ
TTITLE5=天爾遠波洞窟世界
EXTD=YEAR: 2000
EXTT0=
EXTT1=
EXTT2=
EXTT3=
EXTT4=
EXTT5=
PLAYORDER=
